<mxfile host="app.diagrams.net" modified="2023-05-04T02:28:57.385Z" agent="Mozilla/5.0 (Windows NT 10.0; Win64; x64) AppleWebKit/537.36 (KHTML, like Gecko) Chrome/112.0.0.0 Safari/537.36 Edg/112.0.1722.68" version="21.2.3" etag="u_RRr9IgFRvAtwuNOZaP" type="github">
  <diagram name="第 1 页" id="U3Ll2fdez_90nZSnxkvV">
    <mxGraphModel>
      <root>
        <mxCell id="0" />
        <mxCell id="1" parent="0" />
      </root>
    </mxGraphModel>
  </diagram>
</mxfile>
